<svg xmlns="http://www.w3.org/2000/svg" viewBox="0 0 48.52 40.04"><title>Zay Chin Logo</title><path d="M24.47,5.73c-2.31,0-4.69,2.81-6.3,7.17h12.6C29.16,8.54,26.78,5.73,24.47,5.73Z" transform="translate(0 -0.2)" style="fill:none"/><polygon points="29.11 30.59 38.92 30.59 41.85 21.71 37.35 24.85 29.11 30.59" style="fill:#fff"/><polygon points="13.8 24.85 18.15 21.82 6.73 21.82 8.88 28.28 13.8 24.85" style="fill:#fff"/><polygon points="12.33 12.7 12.33 12.7 12.33 12.7 12.33 12.7" style="fill:#fff"/><polygon points="48.51 12.7 48.51 12.7 41.44 12.7 38.75 12.7 38.75 12.7 37.89 12.7 36.6 12.7 30.77 12.7 18.17 12.7 12.33 12.7 0 12.7 2.02 18.78 9.11 18.78 18.23 18.78 29.17 18.78 39.8 18.78 39.8 18.78 46.48 18.78 48.5 12.72 48.52 12.7 48.51 12.7" style="fill:#fff"/><polygon points="20.44 24.85 7.14 34.12 8.97 39.63 9.11 40.04 17.99 33.97 17.99 33.97 22.35 30.93 31.07 24.85 38.75 19.51 27.08 20.23 20.44 24.85" style="fill:#fff"/><polygon points="36.6 12.7 36.6 12.7 36.6 12.7 36.6 12.7" style="fill:#fff"/><polygon points="15.39 40.04 15.54 40.04 39.49 40.04 41.52 33.97 33.8 33.97 33.41 33.97 18.82 33.97 11.28 40.04 15.39 40.04" style="fill:#fff"/><path d="M24.47,5.73c2.31,0,4.69,2.81,6.3,7.17H36.6C34.23,5,29.72.2,24.47.2S14.7,5,12.33,12.9h5.84C19.78,8.54,22.16,5.73,24.47,5.73Z" transform="translate(0 -0.2)" style="fill:#fff"/><polygon points="39.8 18.78 39.8 18.78 39.38 19.07 39.8 18.78" style="fill:#cadbd5;opacity:0.4"/><polygon points="27.08 20.23 27.08 20.23 29.17 18.78 27.08 20.23" style="fill:#cadbd5;opacity:0.4"/><polygon points="38.75 19.51 39.38 19.07 38.75 19.51 38.75 19.51" style="fill:#cadbd5;opacity:0.4"/><polygon points="27.08 20.23 38.75 19.51 39.38 19.07 39.8 18.78 29.17 18.78 27.08 20.23" style="fill:#fff"/><polygon points="27.08 20.23 38.75 19.51 39.38 19.07 39.8 18.78 29.17 18.78 27.08 20.23" style="fill:#cadbd5;opacity:0.4"/><polygon points="9.26 40.04 11.28 40.04 18.82 33.97 17.99 33.97 9.11 40.04 9.26 40.04" style="fill:#fff"/><polygon points="9.26 40.04 11.28 40.04 18.82 33.97 17.99 33.97 9.11 40.04 9.26 40.04" style="fill:#cadbd5;opacity:0.4"/></svg>